<?xml version="1.0" standalone="no"?>
<!DOCTYPE svg PUBLIC "-//W3C//DTD SVG 20010904//EN"
 "http://www.w3.org/TR/2001/REC-SVG-20010904/DTD/svg10.dtd">
<svg version="1.0" xmlns="http://www.w3.org/2000/svg"
 width="300.000000pt" height="300.000000pt" viewBox="0 0 300.000000 300.000000"
 preserveAspectRatio="xMidYMid meet">
<metadata>
Created by potrace 1.11, written by Peter Selinger 2001-2013
</metadata>
<g transform="translate(0.000000,300.000000) scale(0.100000,-0.100000)"
fill="#000000" stroke="none">
<path d="M0 2490 l0 -110 263 2 262 3 0 105 0 105 -262 3 -263 2 0 -110z"/>
<path d="M720 2160 l0 -130 100 0 100 0 0 130 0 130 -100 0 -100 0 0 -130z"/>
<path d="M1060 2160 l0 -130 100 0 100 0 0 130 0 130 -100 0 -100 0 0 -130z"/>
<path d="M1760 2160 l0 -130 100 0 100 0 0 130 0 130 -100 0 -100 0 0 -130z"/>
<path d="M2090 2160 l0 -130 105 0 105 0 0 130 0 130 -105 0 -105 0 0 -130z"/>
<path d="M2450 2161 l0 -131 100 0 100 0 0 125 0 125 -32 0 c-18 0 -63 3 -100
7 l-68 6 0 -132z"/>
<path d="M2810 2155 l0 -125 95 0 95 0 0 125 0 125 -95 0 -95 0 0 -125z"/>
<path d="M1060 1625 l0 -105 270 0 270 0 0 105 0 105 -270 0 -270 0 0 -105z"/>
<path d="M710 1270 l0 -130 100 0 100 0 0 130 0 130 -100 0 -100 0 0 -130z"/>
<path d="M1760 1270 l0 -130 100 0 100 0 0 130 0 130 -100 0 -100 0 0 -130z"/>
<path d="M2090 1270 l0 -130 105 0 105 0 0 130 0 130 -105 0 -105 0 0 -130z"/>
<path d="M1060 740 l0 -110 270 0 270 0 0 110 0 110 -270 0 -270 0 0 -110z"/>
<path d="M1760 740 l0 -110 265 0 265 0 0 110 0 110 -265 0 -265 0 0 -110z"/>
<path d="M2457 534 c-4 -4 -7 -63 -7 -131 l0 -123 100 0 101 0 -3 128 -3 127
-90 3 c-50 1 -94 0 -98 -4z"/>
</g>
</svg>
