<svg xmlns="http://www.w3.org/2000/svg" viewBox="0 0 600 104.218"><defs><style>.cls-1{fill:#fde8ab;}.cls-2{fill:#403c30;}.cls-3{fill:#ffc71f;}</style></defs><title>dhlg_logotype_horizontal</title><g id="base"><circle class="cls-1" cx="60.443" cy="52.109" r="52.109"/></g><g id="type"><path class="cls-2" d="M156.8,47.237h-3.171V25.22h-7.091V22.438h17.336V25.22H156.8Zm23.9,0V35.245q0-4.41-4.037-4.411-5.21,0-5.208,6.751v9.652h-3.088V20.844h3.088V28.68l-.136,2.443h.17q1.746-2.85,5.7-2.85,6.6,0,6.6,6.8V47.237ZM205.1,38.518H191.968q.133,6.361,5.835,6.361a15.581,15.581,0,0,0,6.276-1.289V46.3a14.824,14.824,0,0,1-6.174,1.272,8.9,8.9,0,0,1-6.65-2.536,9.525,9.525,0,0,1-2.494-6.98,10.512,10.512,0,0,1,2.3-7.15,7.747,7.747,0,0,1,6.149-2.637,7.525,7.525,0,0,1,5.742,2.273A8.463,8.463,0,0,1,205.1,36.6Zm-13.061-2.51h9.719q0-5.174-4.614-5.174Q192.476,30.834,192.036,36.008Zm38.453,11.229v-24.8h5.8q5.378,0,8.372,3.206t2.993,8.956q0,6.124-3.1,9.38T235.6,47.237Zm3.173-22.1V44.523h1.628q9.024,0,9.024-9.821,0-9.567-8.363-9.567Zm24.561,5.92L253.66,30.7V28.612h7.651v16.2l5.97.339v2.086H252.388V45.151l5.835-.339Zm1.561-10.11q1.8,0,1.8,1.934a1.877,1.877,0,0,1-.535,1.467,1.821,1.821,0,0,1-1.263.484q-1.815,0-1.816-1.951Q257.968,20.946,259.784,20.945Zm29.209,7.667v1.917l-3.324.458a5.783,5.783,0,0,1,1.1,3.613,5.552,5.552,0,0,1-1.807,4.351,7.266,7.266,0,0,1-5.029,1.62,8.065,8.065,0,0,1-1.458-.1q-1.7.949-1.7,2.256,0,1.425,2.731,1.425h3.172a6.861,6.861,0,0,1,4.512,1.306,4.6,4.6,0,0,1,1.561,3.732q0,6.394-9.585,6.395a9.675,9.675,0,0,1-5.622-1.366,4.422,4.422,0,0,1-1.925-3.825q0-3.6,4.071-4.58a2.706,2.706,0,0,1-1.629-2.612q0-1.9,2.256-3.257a4.9,4.9,0,0,1-2.375-2.078,6.059,6.059,0,0,1-.864-3.163,6.157,6.157,0,0,1,1.806-4.758,7.306,7.306,0,0,1,5.148-1.671,8.577,8.577,0,0,1,2.545.339Zm-7.361,18.32h-3.189q-3.9,0-3.9,3.358,0,2.952,4.6,2.952,6.7,0,6.7-3.783a2.166,2.166,0,0,0-.848-2.01A7.26,7.26,0,0,0,281.632,46.932Zm-1.663-8.481q3.783,0,3.782-3.9,0-4.053-3.816-4.054T276.118,34.6Q276.118,38.451,279.969,38.451Zm19.948-7.4-4.563-.356V28.612H303v16.2l5.971.339v2.086H294.082V45.151l5.835-.339Zm1.561-10.11q1.8,0,1.8,1.934a1.881,1.881,0,0,1-.535,1.467,1.821,1.821,0,0,1-1.263.484q-1.817,0-1.816-1.951Q299.662,20.946,301.478,20.945Zm27.411,23.748v2.341a17.914,17.914,0,0,1-4.274.542q-6.141,0-6.141-5.835v-10.8h-4.529V29.342l4.529-.831,1.306-4.869h1.781v4.97h7.43v2.324h-7.43V41.741q0,3.307,3.257,3.308A30.056,30.056,0,0,0,328.889,44.693Zm18.727,2.544-.629-2.578h-.135a7.669,7.669,0,0,1-2.68,2.281,8.484,8.484,0,0,1-3.545.636,6.119,6.119,0,0,1-4.334-1.458,5.308,5.308,0,0,1-1.569-4.088q0-5.631,8.651-5.9l3.443-.119v-1.17q0-4-4.139-4a13.674,13.674,0,0,0-5.564,1.391L336.047,29.9a14.716,14.716,0,0,1,6.5-1.628q3.852,0,5.573,1.476t1.721,4.732V47.237Zm-.832-9.109-2.748.119a9.8,9.8,0,0,0-4.716,1.043,3.086,3.086,0,0,0-1.391,2.774q0,3.02,3.393,3.019A5.6,5.6,0,0,0,345.3,43.7a5.058,5.058,0,0,0,1.484-3.892Zm15.521-14.859-4.546-.356V20.844h7.65V44.812l5.971.339v2.086H356.47V45.151l5.835-.339Zm51.227,23.968h-3.173V35.669h-9.922V47.237h-3.173v-24.8h3.173V32.887h9.922V22.438h3.173Zm17.929,0L431,44.744h-.169a6.2,6.2,0,0,1-5.666,2.832q-6.633,0-6.633-6.8V28.612h3.087V40.6q0,4.41,4,4.41a4.8,4.8,0,0,0,3.986-1.569q1.254-1.569,1.256-5.165V28.612h3.087V47.237Zm21.78,0V35.245a9.084,9.084,0,0,0-.45-3.444,1.543,1.543,0,0,0-1.5-.967,2.238,2.238,0,0,0-2.147,1.408,11.887,11.887,0,0,0-.669,4.716V47.237h-2.732V35.245q0-4.41-2.12-4.411a2.091,2.091,0,0,0-2.035,1.349,15.415,15.415,0,0,0-.611,5.4v9.652h-2.748V28.612h2.154l.459,2.511h.169q1.135-2.85,3.409-2.85,2.766,0,3.614,3.087h.1q1.289-3.087,3.715-3.087a3.444,3.444,0,0,1,3.155,1.569q.984,1.569.983,5.233V47.237Zm19.456,0-.628-2.578h-.136a7.66,7.66,0,0,1-2.68,2.281,8.482,8.482,0,0,1-3.544.636,6.122,6.122,0,0,1-4.335-1.458,5.308,5.308,0,0,1-1.568-4.088q0-5.631,8.651-5.9l3.442-.119v-1.17q0-4-4.139-4a13.67,13.67,0,0,0-5.563,1.391L461.129,29.9a14.716,14.716,0,0,1,6.5-1.628q3.851,0,5.572,1.476t1.722,4.732V47.237Zm-.832-9.109-2.748.119A9.789,9.789,0,0,0,464.4,39.29a3.084,3.084,0,0,0-1.391,2.774q0,3.02,3.392,3.019a5.6,5.6,0,0,0,3.978-1.383,5.054,5.054,0,0,0,1.484-3.892Zm21.543,9.109V35.245q0-4.41-4.037-4.411-5.208,0-5.207,6.751v9.652h-3.087V28.612h2.492l.459,2.511h.17q1.746-2.85,5.7-2.85,6.6,0,6.6,6.8V47.237Zm14.978-16.182-4.563-.356V28.612h7.65v16.2l5.971.339v2.086H502.551V45.151l5.835-.339Zm1.561-10.11q1.8,0,1.8,1.934a1.881,1.881,0,0,1-.535,1.467,1.821,1.821,0,0,1-1.263.484q-1.817,0-1.816-1.951Q508.131,20.946,509.947,20.945Zm27.411,23.748v2.341a17.914,17.914,0,0,1-4.274.542q-6.141,0-6.141-5.835v-10.8h-4.529V29.342l4.529-.831,1.306-4.869h1.781v4.97h7.43v2.324h-7.43V41.741q0,3.307,3.257,3.308A30.056,30.056,0,0,0,537.358,44.693ZM550.08,31.055l-4.564-.356V28.612h7.651v16.2l5.971.339v2.086H544.245V45.151l5.835-.339Zm1.561-10.11q1.8,0,1.8,1.934a1.881,1.881,0,0,1-.535,1.467,1.823,1.823,0,0,1-1.263.484q-1.817,0-1.816-1.951Q549.825,20.946,551.641,20.945Zm28.7,17.573H567.212q.135,6.361,5.835,6.361a15.577,15.577,0,0,0,6.276-1.289V46.3a14.824,14.824,0,0,1-6.174,1.272A8.9,8.9,0,0,1,566.5,45.04a9.521,9.521,0,0,1-2.494-6.98,10.512,10.512,0,0,1,2.3-7.15,7.747,7.747,0,0,1,6.149-2.637,7.524,7.524,0,0,1,5.742,2.273,8.463,8.463,0,0,1,2.146,6.056Zm-13.061-2.51H577q0-5.174-4.614-5.174Q567.72,30.834,567.28,36.008Zm18.761,10.4V43.59a15.4,15.4,0,0,0,6.276,1.459q4.664,0,4.664-2.748a2.15,2.15,0,0,0-.831-1.679,14.49,14.49,0,0,0-3.833-1.8q-3.954-1.476-4.979-2.706a4.4,4.4,0,0,1-1.026-2.909,4.176,4.176,0,0,1,1.891-3.622,9.059,9.059,0,0,1,5.233-1.314,15.6,15.6,0,0,1,6.259,1.255l-1.018,2.528a15.047,15.047,0,0,0-5.41-1.222q-4.005,0-4,2.256a1.94,1.94,0,0,0,.857,1.654,19.241,19.241,0,0,0,3.943,1.722,12.885,12.885,0,0,1,4.758,2.569,4.371,4.371,0,0,1,1.179,3.1,4.676,4.676,0,0,1-1.984,3.995,9.388,9.388,0,0,1-5.615,1.45A13.665,13.665,0,0,1,586.041,46.406ZM148.764,88.924v-24.8h3.172V86.108h10.771v2.816Zm26.072-16.182-4.564-.356V70.3h7.651V86.5l5.971.339v2.086H169V86.838l5.835-.339Zm1.56-10.11q1.8,0,1.8,1.934a1.88,1.88,0,0,1-.534,1.467,1.824,1.824,0,0,1-1.264.484q-1.815,0-1.815-1.951Q174.581,62.633,176.4,62.632ZM203.808,86.38v2.341a17.916,17.916,0,0,1-4.275.542q-6.141,0-6.14-5.835v-10.8h-4.53V71.029l4.53-.831,1.305-4.869h1.782V70.3h7.43v2.324h-7.43v10.8q0,3.308,3.257,3.308A30.082,30.082,0,0,0,203.808,86.38Zm22.135-6.175H212.814q.137,6.361,5.835,6.361a15.574,15.574,0,0,0,6.276-1.289v2.714a14.818,14.818,0,0,1-6.174,1.272,8.9,8.9,0,0,1-6.649-2.536,9.521,9.521,0,0,1-2.493-6.98,10.507,10.507,0,0,1,2.3-7.15,7.747,7.747,0,0,1,6.149-2.637,7.525,7.525,0,0,1,5.742,2.273,8.462,8.462,0,0,1,2.145,6.056Zm-13.061-2.51h9.72q0-5.173-4.614-5.174Q213.323,72.521,212.882,77.695Zm33.28-6.972-.83,2.816a11.163,11.163,0,0,0-3.8-.763,5.625,5.625,0,0,0-4.266,1.569,6.31,6.31,0,0,0-1.5,4.537V88.924h-3.087V70.3h2.51l.374,3.41h.135a8.609,8.609,0,0,1,2.764-2.884,7.071,7.071,0,0,1,3.63-.865A11.727,11.727,0,0,1,246.162,70.723Zm18.066,18.2-.628-2.578h-.136a7.66,7.66,0,0,1-2.68,2.281,8.482,8.482,0,0,1-3.544.636,6.122,6.122,0,0,1-4.335-1.458,5.308,5.308,0,0,1-1.568-4.088q0-5.631,8.651-5.9l3.442-.119v-1.17q0-4-4.139-4a13.67,13.67,0,0,0-5.563,1.391l-1.068-2.323a14.7,14.7,0,0,1,6.5-1.629q3.851,0,5.572,1.476t1.722,4.732V88.924Zm-.832-9.109-2.748.119a9.789,9.789,0,0,0-4.715,1.043,3.084,3.084,0,0,0-1.391,2.774q0,3.019,3.392,3.019a5.6,5.6,0,0,0,3.978-1.383A5.054,5.054,0,0,0,263.4,81.5Zm24.494-8.854-1.052,2.68a12.98,12.98,0,0,0-4.545-.967Q276,72.674,276,79.68q0,6.886,6.123,6.886a15.344,15.344,0,0,0,5.446-1.051v2.714a13.444,13.444,0,0,1-5.582,1.034A9.021,9.021,0,0,1,275.22,86.8q-2.411-2.467-2.409-7.081,0-4.767,2.459-7.26a9.282,9.282,0,0,1,6.921-2.494A16.157,16.157,0,0,1,287.89,70.961Zm4.241-.662h3.189l4.444,11.094a20.445,20.445,0,0,1,1.51,4.919h.1a35.069,35.069,0,0,1,1.527-4.953l4.053-11.06h3.207L302.105,91.35a12.439,12.439,0,0,1-2.646,4.435,5.7,5.7,0,0,1-4.173,1.485,14.023,14.023,0,0,1-2.85-.289V94.522a12.227,12.227,0,0,0,2.307.2,4.089,4.089,0,0,0,2.536-.695,5.77,5.77,0,0,0,1.62-2.392l.984-2.544Zm51.7,5.53h7.159V87.991a19.684,19.684,0,0,1-7.125,1.272,8.15,8.15,0,0,1-6.945-3.384q-2.5-3.384-2.5-9.388,0-5.955,2.748-9.339a9.212,9.212,0,0,1,7.565-3.383,11.826,11.826,0,0,1,5.869,1.459l-1.221,2.747a9.554,9.554,0,0,0-4.75-1.424,5.814,5.814,0,0,0-5.072,2.637,12.809,12.809,0,0,0-1.814,7.337q0,9.974,6.683,9.974a12.9,12.9,0,0,0,3.426-.492v-7.4h-4.021Zm25.089,13.1-.459-2.493h-.17a6.2,6.2,0,0,1-5.665,2.832q-6.632,0-6.632-6.8V70.3h3.087V82.292q0,4.41,4,4.41a4.8,4.8,0,0,0,3.985-1.569q1.255-1.569,1.255-5.165V70.3h3.087V88.924Zm14.384-16.182-4.564-.356V70.3h7.651V86.5l5.971.339v2.086H377.47V86.838l5.835-.339Zm1.56-10.11q1.8,0,1.8,1.934a1.88,1.88,0,0,1-.534,1.467,1.824,1.824,0,0,1-1.264.484q-1.815,0-1.815-1.951Q383.05,62.633,384.865,62.632Zm25.325,23.8h-.136a6.206,6.206,0,0,1-5.462,2.832,6.365,6.365,0,0,1-5.351-2.536,11.407,11.407,0,0,1-1.943-7.081,11.5,11.5,0,0,1,1.952-7.133,6.859,6.859,0,0,1,10.8.161h.2q-.2-2.189-.2-2.748v-7.4h3.087V88.924h-2.493Zm-.136-6.09v-.695q0-3.851-1.179-5.488a4.313,4.313,0,0,0-3.756-1.637q-4.616,0-4.614,7.159,0,7.022,4.648,7.022a4.338,4.338,0,0,0,3.7-1.5A8.489,8.489,0,0,0,410.054,80.341Zm24.358-.136H421.283q.137,6.361,5.835,6.361a15.574,15.574,0,0,0,6.276-1.289v2.714a14.818,14.818,0,0,1-6.174,1.272,8.9,8.9,0,0,1-6.649-2.536,9.521,9.521,0,0,1-2.493-6.98,10.507,10.507,0,0,1,2.3-7.15,7.747,7.747,0,0,1,6.149-2.637,7.525,7.525,0,0,1,5.742,2.273,8.462,8.462,0,0,1,2.145,6.056Zm-13.061-2.51h9.72q0-5.173-4.614-5.174Q421.792,72.521,421.351,77.695Zm21.085,8.871h-.2l-.629,2.358h-2.255V62.531h3.087v6.377q0,1.374-.136,3.834h.136A6.084,6.084,0,0,1,447.9,69.96a6.369,6.369,0,0,1,5.351,2.536,11.41,11.41,0,0,1,1.943,7.082,11.515,11.515,0,0,1-1.951,7.132,6.874,6.874,0,0,1-10.805-.144Zm0-6.988q0,3.85,1.179,5.487a4.31,4.31,0,0,0,3.756,1.637q4.615,0,4.614-7.158,0-7.023-4.647-7.023a4.3,4.3,0,0,0-3.766,1.595Q442.437,75.711,442.436,79.578Zm25.426,9.685a7.742,7.742,0,0,1-6.03-2.638,10.159,10.159,0,0,1-2.366-7.047,10.2,10.2,0,0,1,2.3-7.04,7.89,7.89,0,0,1,6.2-2.578,7.769,7.769,0,0,1,6.056,2.629,10.075,10.075,0,0,1,2.357,6.989,10.242,10.242,0,0,1-2.323,7.09A7.906,7.906,0,0,1,467.862,89.263Zm.068-2.561q5.259,0,5.258-7.124,0-7.056-5.292-7.057-5.241,0-5.241,7.057Q462.655,86.7,467.93,86.7Zm20.78,2.561a7.743,7.743,0,0,1-6.031-2.638,10.159,10.159,0,0,1-2.366-7.047,10.2,10.2,0,0,1,2.3-7.04,7.893,7.893,0,0,1,6.2-2.578,7.765,7.765,0,0,1,6.054,2.629,10.072,10.072,0,0,1,2.359,6.989,10.238,10.238,0,0,1-2.325,7.09A7.9,7.9,0,0,1,488.71,89.263Zm.068-2.561q5.257,0,5.258-7.124,0-7.056-5.292-7.057-5.243,0-5.242,7.057Q483.5,86.7,488.778,86.7Zm16.928-7.158L508,76.966l6.7-6.667h3.766l-8.379,8.058,8.854,10.567h-3.614L508.1,80.375l-2.187,1.391v7.158h-3.054V62.531h3.054V74.642l-.272,4.9Z"/></g><g id="morse"><path class="cls-3" d="M0,16.618V8.211H21.053v8.407ZM29.042,30.792V20.787h7.642V30.792Zm13.824,0V20.787h7.642V30.792Zm27.861,0V20.787h7.642V30.792Zm13.547,0V20.787h7.643V30.792Zm14.243,0V20.787h7.642V30.792Zm14.242,0V20.787H120.4V30.792ZM28.833,66.226V56.221h7.642V66.226ZM42.866,51.357V42.95H63.919v8.407ZM70.727,66.226V56.221h7.642V66.226Zm13.547,0V56.221h7.643V66.226ZM42.866,86.791V78.384H63.919v8.407Zm27.861,0V78.384H91.78v8.407Zm27.79,14.175V90.96h7.642v10.006Z"/></g></svg>