<svg xmlns="http://www.w3.org/2000/svg" viewBox="0 0 150 214.969"><defs><style>.cls-1{fill:#fde8ab;}.cls-2{fill:#403c30;}.cls-3{fill:#ffc71f;}</style></defs><title>dhlg_logotype_vertical</title><g id="base"><circle class="cls-1" cx="75.302" cy="64.919" r="64.919"/></g><g id="type"><path class="cls-2" d="M28.818,196.064h-.236a10.825,10.825,0,0,1-9.527,4.941,11.109,11.109,0,0,1-9.334-4.423q-3.389-4.422-3.388-12.353,0-7.988,3.4-12.44a11.089,11.089,0,0,1,9.319-4.452,11.112,11.112,0,0,1,9.527,4.733h.355q-.356-3.816-.355-4.793v-12.9h5.384v46.035H29.617Zm-.236-10.621v-1.214q0-6.714-2.057-9.57T19.972,171.8q-8.048,0-8.047,12.485,0,12.249,8.106,12.248,4.5,0,6.465-2.618T28.582,185.443Zm36.3,14.97V179.5q0-7.692-7.042-7.692-9.083,0-9.082,11.775v16.834H43.375V154.378h5.384v13.669l-.237,4.26h.3q3.046-4.971,9.941-4.97,11.508,0,11.508,11.863v21.213Zm25.857-41.8-7.928-.622v-3.609H96.154v41.805l10.414.591v3.639h-26v-3.639l10.177-.591Zm53.934,9.32v3.342l-5.8.8a10.069,10.069,0,0,1,1.924,6.3,9.686,9.686,0,0,1-3.151,7.589q-3.151,2.826-8.772,2.825a14.037,14.037,0,0,1-2.544-.178q-2.959,1.657-2.959,3.935,0,2.485,4.763,2.485h5.532q5.149,0,7.871,2.279a8.01,8.01,0,0,1,2.721,6.508q0,11.154-16.716,11.154-6.448,0-9.807-2.381a7.713,7.713,0,0,1-3.358-6.672q0-6.273,7.1-7.988a4.723,4.723,0,0,1-2.84-4.556q0-3.314,3.935-5.681a8.538,8.538,0,0,1-4.142-3.624,10.572,10.572,0,0,1-1.509-5.517q0-5.385,3.151-8.3t8.979-2.914a14.905,14.905,0,0,1,4.438.592Zm-12.84,31.952h-5.562q-6.8,0-6.8,5.857,0,5.148,8.017,5.149,11.687,0,11.686-6.6,0-2.6-1.479-3.506T131.834,199.881Zm-2.9-14.793q6.6,0,6.6-6.805,0-7.071-6.657-7.071t-6.657,7.16Q122.219,185.089,128.935,185.088Z"/></g><g id="morse"><path class="cls-3" d="M0,20.7V10.229H26.229V20.7ZM36.181,38.362V25.9H45.7V38.362Zm17.222,0V25.9h9.522V38.362Zm34.71,0V25.9h9.522V38.362Zm16.878,0V25.9h9.522V38.362Zm17.744,0V25.9h9.521V38.362Zm17.744,0V25.9H150V38.362ZM35.921,82.507V70.042h9.521V82.507ZM53.4,63.982V53.508H79.632V63.982Zm34.71,18.525V70.042h9.522V82.507Zm16.878,0V70.042h9.522V82.507ZM53.4,108.127V97.653H79.632v10.474Zm34.71,0V97.653h26.229v10.474Zm34.622,17.659V113.321h9.521v12.465Z"/></g></svg>