<svg xmlns="http://www.w3.org/2000/svg" viewBox="0 0 600 105.174"><defs><style>.cls-1{fill:#fff;}.cls-2{fill:none;}</style></defs><title>dhlg_logotype_horizontal_rev</title><g id="base"><path class="cls-1" d="M113.585,52.587A52.587,52.587,0,1,1,61,0,52.587,52.587,0,0,1,113.585,52.587Z"/></g><g id="type"><path class="cls-2" d="M156.956,48.213h-3.17V26.2H146.7v-2.78h17.329V26.2h-7.071Zm23.892,0V36.225q0-4.408-4.035-4.409-5.208,0-5.207,6.749v9.648H168.52V21.829h3.086v7.834l-.135,2.441h.169a6.169,6.169,0,0,1,5.7-2.848q6.6,0,6.6,6.8V48.213ZM205.232,39.5H192.108q.133,6.36,5.833,6.359a15.571,15.571,0,0,0,6.274-1.289v2.714a14.835,14.835,0,0,1-6.173,1.271,8.9,8.9,0,0,1-6.647-2.535A9.523,9.523,0,0,1,188.9,39.04a10.509,10.509,0,0,1,2.3-7.148,7.747,7.747,0,0,1,6.147-2.636,7.52,7.52,0,0,1,5.74,2.272,8.455,8.455,0,0,1,2.145,6.053Zm-13.057-2.509h9.716q0-5.172-4.612-5.172Q192.616,31.816,192.175,36.988Zm38.441,11.225V23.423h5.8q5.376,0,8.368,3.2t2.993,8.953q0,6.123-3.1,9.378t-8.953,3.255Zm3.171-22.094V45.5h1.628q9.021,0,9.021-9.818,0-9.564-8.36-9.563Zm24.553,5.918-4.562-.357V29.6h7.649V45.788l5.968.34v2.085H252.507V46.128l5.833-.34ZM259.9,21.93q1.8,0,1.8,1.933a1.881,1.881,0,0,1-.535,1.467,1.821,1.821,0,0,1-1.263.483q-1.815,0-1.815-1.95Q258.085,21.931,259.9,21.93ZM289.1,29.6v1.916l-3.324.458a5.777,5.777,0,0,1,1.1,3.611,5.554,5.554,0,0,1-1.806,4.35,7.268,7.268,0,0,1-5.027,1.619,8.058,8.058,0,0,1-1.458-.1q-1.7.949-1.7,2.256,0,1.423,2.729,1.424h3.172a6.857,6.857,0,0,1,4.51,1.306,4.59,4.59,0,0,1,1.56,3.73q0,6.393-9.581,6.393a9.674,9.674,0,0,1-5.621-1.365,4.422,4.422,0,0,1-1.924-3.824q0-3.6,4.07-4.578a2.707,2.707,0,0,1-1.628-2.612q0-1.9,2.255-3.255a4.9,4.9,0,0,1-2.374-2.078,6.054,6.054,0,0,1-.865-3.162A6.156,6.156,0,0,1,275,30.926a7.3,7.3,0,0,1,5.147-1.67,8.563,8.563,0,0,1,2.543.339Zm-7.359,18.313h-3.188q-3.9,0-3.9,3.357,0,2.95,4.594,2.951,6.7,0,6.7-3.781a2.166,2.166,0,0,0-.848-2.01A7.258,7.258,0,0,0,281.741,47.908Zm-1.662-8.478q3.78,0,3.781-3.9,0-4.053-3.815-4.053t-3.816,4.1Q276.229,39.429,280.079,39.43Zm19.941-7.393-4.562-.357V29.6h7.648V45.788l5.969.34v2.085H294.187V46.128l5.833-.34Zm1.56-10.107q1.8,0,1.8,1.933a1.88,1.88,0,0,1-.534,1.467,1.821,1.821,0,0,1-1.263.483q-1.815,0-1.815-1.95Q299.765,21.931,301.58,21.93Zm27.4,23.74v2.34a17.906,17.906,0,0,1-4.273.542q-6.14,0-6.138-5.833v-10.8h-4.529V30.324l4.529-.831,1.3-4.867h1.781V29.6h7.427v2.323h-7.427v10.8q0,3.307,3.255,3.307A30.043,30.043,0,0,0,328.982,45.67Zm18.72,2.543-.628-2.577h-.136a7.654,7.654,0,0,1-2.679,2.28,8.474,8.474,0,0,1-3.543.636,6.117,6.117,0,0,1-4.333-1.458,5.3,5.3,0,0,1-1.568-4.087q0-5.628,8.648-5.9l3.442-.119v-1.17q0-4-4.138-4a13.649,13.649,0,0,0-5.562,1.391l-1.067-2.324a14.7,14.7,0,0,1,6.493-1.627q3.851,0,5.571,1.475t1.721,4.731V48.213Zm-.831-9.106-2.747.119a9.785,9.785,0,0,0-4.714,1.043,3.082,3.082,0,0,0-1.391,2.772q0,3.02,3.392,3.019a5.6,5.6,0,0,0,3.976-1.383,5.055,5.055,0,0,0,1.484-3.891Zm15.516-14.854-4.545-.356V21.829h7.647V45.788l5.969.34v2.085h-14.9V46.128l5.833-.34ZM413.6,48.213h-3.172V36.649h-9.919V48.213h-3.171V23.423h3.171V33.868h9.919V23.423H413.6Zm17.922,0-.457-2.492h-.169a6.2,6.2,0,0,1-5.664,2.831q-6.632,0-6.631-6.8V29.6h3.086V41.583q0,4.409,4,4.409a4.8,4.8,0,0,0,3.986-1.569q1.252-1.568,1.255-5.163V29.6h3.086V48.213Zm21.773,0V36.225a9.077,9.077,0,0,0-.449-3.442,1.543,1.543,0,0,0-1.5-.967,2.235,2.235,0,0,0-2.145,1.407,11.879,11.879,0,0,0-.669,4.714V48.213H445.8V36.225q0-4.408-2.119-4.409a2.089,2.089,0,0,0-2.035,1.348,15.411,15.411,0,0,0-.61,5.4v9.648h-2.747V29.6h2.153L440.9,32.1h.17q1.136-2.849,3.407-2.848,2.764,0,3.613,3.086h.1q1.288-3.085,3.713-3.086a3.443,3.443,0,0,1,3.154,1.568q.984,1.569.984,5.231V48.213Zm19.45,0-.628-2.577h-.136a7.654,7.654,0,0,1-2.679,2.28,8.477,8.477,0,0,1-3.543.636,6.117,6.117,0,0,1-4.333-1.458,5.3,5.3,0,0,1-1.568-4.087q0-5.628,8.648-5.9l3.441-.119v-1.17q0-4-4.137-4a13.646,13.646,0,0,0-5.562,1.391l-1.068-2.324a14.71,14.71,0,0,1,6.494-1.627q3.851,0,5.571,1.475t1.72,4.731V48.213Zm-.832-9.106-2.747.119a9.788,9.788,0,0,0-4.714,1.043,3.083,3.083,0,0,0-1.39,2.772q0,3.02,3.391,3.019a5.6,5.6,0,0,0,3.977-1.383,5.055,5.055,0,0,0,1.483-3.891Zm21.535,9.106V36.225q0-4.408-4.036-4.409-5.205,0-5.205,6.749v9.648h-3.086V29.6h2.492l.459,2.509h.169q1.746-2.849,5.7-2.848,6.594,0,6.595,6.8V48.213Zm14.974-16.176-4.562-.357V29.6H511.5V45.788l5.968.34v2.085H502.585V46.128l5.833-.34Zm1.56-10.107q1.8,0,1.8,1.933a1.88,1.88,0,0,1-.534,1.467,1.824,1.824,0,0,1-1.263.483q-1.815,0-1.815-1.95Q508.163,21.931,509.978,21.93Zm27.4,23.74v2.34a17.906,17.906,0,0,1-4.273.542q-6.139,0-6.139-5.833v-10.8H522.44V30.324l4.528-.831,1.305-4.867h1.781V29.6h7.427v2.323h-7.427v10.8q0,3.307,3.256,3.307A30.056,30.056,0,0,0,537.38,45.67ZM550.1,32.037l-4.562-.357V29.6h7.648V45.788l5.969.34v2.085H544.264V46.128l5.833-.34Zm1.56-10.107q1.8,0,1.8,1.933a1.881,1.881,0,0,1-.535,1.467,1.821,1.821,0,0,1-1.263.483q-1.815,0-1.815-1.95Q549.842,21.931,551.657,21.93ZM580.348,39.5H567.223q.135,6.36,5.834,6.359a15.566,15.566,0,0,0,6.273-1.289v2.714a14.827,14.827,0,0,1-6.172,1.271,8.9,8.9,0,0,1-6.647-2.535,9.519,9.519,0,0,1-2.493-6.977,10.5,10.5,0,0,1,2.3-7.148,7.744,7.744,0,0,1,6.146-2.636,7.522,7.522,0,0,1,5.741,2.272,8.459,8.459,0,0,1,2.145,6.053Zm-13.057-2.509h9.716q0-5.172-4.612-5.172Q567.731,31.816,567.291,36.988Zm18.754,10.394V44.567a15.408,15.408,0,0,0,6.274,1.459q4.662,0,4.663-2.747a2.152,2.152,0,0,0-.83-1.679,14.465,14.465,0,0,0-3.833-1.8q-3.951-1.476-4.977-2.7a4.4,4.4,0,0,1-1.025-2.908,4.173,4.173,0,0,1,1.89-3.621,9.06,9.06,0,0,1,5.231-1.313A15.589,15.589,0,0,1,599.7,30.51l-1.018,2.527a15.029,15.029,0,0,0-5.408-1.221q-4,0-4,2.255a1.938,1.938,0,0,0,.856,1.653,19.25,19.25,0,0,0,3.942,1.722,12.894,12.894,0,0,1,4.757,2.568A4.373,4.373,0,0,1,600,43.109a4.674,4.674,0,0,1-1.983,3.993,9.385,9.385,0,0,1-5.614,1.45A13.662,13.662,0,0,1,586.045,47.382Zm-437.127,42.5V65.1h3.172V87.071h10.767v2.815Zm26.063-16.177-4.562-.356V71.267h7.648V87.461l5.969.339v2.086H169.148V87.8l5.833-.339Zm1.56-10.106q1.8,0,1.8,1.933A1.882,1.882,0,0,1,177.8,67a1.821,1.821,0,0,1-1.263.483q-1.815,0-1.815-1.95Q174.726,63.6,176.541,63.6Zm27.4,23.739v2.34a17.845,17.845,0,0,1-4.273.543q-6.138,0-6.138-5.833v-10.8H189V72l4.528-.831,1.3-4.867h1.781v4.968h7.427v2.324h-7.427v10.8q0,3.306,3.256,3.307A29.894,29.894,0,0,0,203.943,87.342Zm22.128-6.172H212.947q.137,6.359,5.833,6.359a15.568,15.568,0,0,0,6.274-1.289v2.713a14.812,14.812,0,0,1-6.172,1.272,8.9,8.9,0,0,1-6.647-2.535,9.521,9.521,0,0,1-2.492-6.978,10.5,10.5,0,0,1,2.3-7.147,7.742,7.742,0,0,1,6.147-2.637,7.517,7.517,0,0,1,5.739,2.273,8.455,8.455,0,0,1,2.145,6.053Zm-13.056-2.509h9.716q0-5.172-4.612-5.172Q213.455,73.489,213.015,78.661Zm33.269-6.97-.831,2.815a11.176,11.176,0,0,0-3.8-.763,5.627,5.627,0,0,0-4.265,1.568,6.314,6.314,0,0,0-1.5,4.537V89.886H232.8V71.267h2.509l.373,3.409h.136a8.612,8.612,0,0,1,2.763-2.883,7.077,7.077,0,0,1,3.629-.865A11.726,11.726,0,0,1,246.284,71.691Zm18.059,18.195-.628-2.577h-.136a7.665,7.665,0,0,1-2.679,2.28,8.474,8.474,0,0,1-3.543.636,6.117,6.117,0,0,1-4.333-1.458,5.3,5.3,0,0,1-1.568-4.087q0-5.63,8.648-5.9l3.441-.118v-1.17q0-4-4.137-4a13.663,13.663,0,0,0-5.562,1.39l-1.067-2.323a14.7,14.7,0,0,1,6.493-1.628q3.851,0,5.571,1.476t1.721,4.731V89.886Zm-.831-9.106-2.747.119a9.8,9.8,0,0,0-4.714,1.042,3.084,3.084,0,0,0-1.391,2.773q0,3.02,3.391,3.018a5.6,5.6,0,0,0,3.977-1.382,5.055,5.055,0,0,0,1.484-3.891ZM288,71.929l-1.051,2.679a13,13,0,0,0-4.545-.967q-6.289,0-6.29,7,0,6.883,6.121,6.884a15.35,15.35,0,0,0,5.443-1.051v2.713a13.429,13.429,0,0,1-5.579,1.034,9.021,9.021,0,0,1-6.765-2.467q-2.409-2.467-2.408-7.08,0-4.764,2.458-7.257a9.283,9.283,0,0,1,6.919-2.493A16.15,16.15,0,0,1,288,71.929Zm4.239-.662h3.188l4.443,11.09a20.424,20.424,0,0,1,1.509,4.918h.1A35.169,35.169,0,0,1,303,82.323l4.052-11.056h3.206l-8.055,21.044a12.419,12.419,0,0,1-2.646,4.434,5.7,5.7,0,0,1-4.171,1.484,14.021,14.021,0,0,1-2.849-.289V95.482a12.224,12.224,0,0,0,2.306.2,4.089,4.089,0,0,0,2.536-.7A5.782,5.782,0,0,0,299,92.6l.983-2.543ZM343.92,76.8h7.156V88.953a19.668,19.668,0,0,1-7.122,1.272,8.15,8.15,0,0,1-6.943-3.383q-2.5-3.382-2.5-9.385,0-5.952,2.747-9.335a9.208,9.208,0,0,1,7.563-3.383,11.831,11.831,0,0,1,5.867,1.458l-1.221,2.747a9.547,9.547,0,0,0-4.748-1.424,5.813,5.813,0,0,0-5.071,2.636,12.812,12.812,0,0,0-1.814,7.335q0,9.971,6.681,9.97a12.857,12.857,0,0,0,3.426-.492V79.576h-4.02ZM369,89.886l-.459-2.493h-.169a6.2,6.2,0,0,1-5.664,2.832q-6.629,0-6.629-6.8V71.267h3.086V83.256q0,4.408,4,4.409a4.8,4.8,0,0,0,3.984-1.569q1.255-1.567,1.255-5.163V71.267h3.086V89.886Zm14.379-16.177-4.562-.356V71.267h7.648V87.461l5.969.339v2.086H377.546V87.8l5.833-.339Zm1.56-10.106q1.8,0,1.8,1.933A1.882,1.882,0,0,1,386.2,67a1.821,1.821,0,0,1-1.263.483q-1.815,0-1.815-1.95Q383.124,63.6,384.939,63.6Zm25.316,23.79h-.136a6.2,6.2,0,0,1-5.46,2.832,6.367,6.367,0,0,1-5.35-2.535,11.411,11.411,0,0,1-1.941-7.079,11.507,11.507,0,0,1,1.95-7.131,6.858,6.858,0,0,1,10.8.161h.2q-.2-2.187-.2-2.747V63.5h3.086V89.886h-2.492Zm-.136-6.087v-.695q0-3.849-1.178-5.486a4.313,4.313,0,0,0-3.756-1.636q-4.613,0-4.612,7.156,0,7.02,4.646,7.02a4.338,4.338,0,0,0,3.7-1.5A8.493,8.493,0,0,0,410.119,81.306Zm24.35-.136H421.344q.137,6.359,5.833,6.359a15.561,15.561,0,0,0,6.274-1.289v2.713a14.812,14.812,0,0,1-6.172,1.272,8.9,8.9,0,0,1-6.647-2.535,9.521,9.521,0,0,1-2.492-6.978,10.5,10.5,0,0,1,2.3-7.147,7.742,7.742,0,0,1,6.147-2.637,7.52,7.52,0,0,1,5.739,2.273,8.455,8.455,0,0,1,2.145,6.053Zm-13.057-2.509h9.717q0-5.172-4.612-5.172Q421.854,73.489,421.412,78.661Zm21.078,8.868h-.2l-.629,2.357H439.4V63.5h3.086v6.376q0,1.374-.136,3.832h.136a6.083,6.083,0,0,1,5.46-2.781,6.367,6.367,0,0,1,5.35,2.535,11.413,11.413,0,0,1,1.941,7.08,11.51,11.51,0,0,1-1.95,7.13,6.871,6.871,0,0,1-10.8-.144Zm0-6.986q0,3.849,1.178,5.485a4.313,4.313,0,0,0,3.756,1.637q4.613,0,4.612-7.156,0-7.02-4.646-7.02a4.3,4.3,0,0,0-3.765,1.594Q442.491,76.678,442.49,80.543Zm25.417,9.682a7.738,7.738,0,0,1-6.027-2.637,10.153,10.153,0,0,1-2.365-7.045,10.193,10.193,0,0,1,2.3-7.037,7.885,7.885,0,0,1,6.2-2.578,7.765,7.765,0,0,1,6.054,2.629,10.072,10.072,0,0,1,2.357,6.986,10.243,10.243,0,0,1-2.323,7.088A7.9,7.9,0,0,1,467.907,90.225Zm.068-2.56q5.257,0,5.257-7.122,0-7.055-5.291-7.054-5.239,0-5.239,7.054Q462.7,87.665,467.975,87.665Zm20.773,2.56a7.741,7.741,0,0,1-6.029-2.637,10.153,10.153,0,0,1-2.365-7.045,10.193,10.193,0,0,1,2.3-7.037,7.886,7.886,0,0,1,6.2-2.578,7.761,7.761,0,0,1,6.052,2.629,10.068,10.068,0,0,1,2.358,6.986,10.234,10.234,0,0,1-2.324,7.088A7.9,7.9,0,0,1,488.748,90.225Zm.068-2.56q5.256,0,5.256-7.122,0-7.055-5.29-7.054-5.239,0-5.241,7.054Q483.541,87.665,488.816,87.665Zm16.922-7.156,2.289-2.578,6.7-6.664h3.764l-8.377,8.055,8.852,10.564h-3.613l-7.223-8.546-2.187,1.39v7.156H502.89V63.5h3.052V75.608l-.271,4.9Z"/></g><g id="morse"><path class="cls-1" d="M21.246,16.77V8.286H0V16.77ZM37.021,31.075v-10.1H29.308v10.1Zm13.951,0v-10.1H43.259v10.1Zm28.117,0v-10.1H71.376v10.1Zm13.672,0v-10.1H85.048v10.1Zm14.373,0v-10.1H99.421v10.1Zm14.373,0v-10.1h-7.713v10.1ZM36.81,66.834v-10.1H29.1v10.1ZM64.505,51.828V43.344H43.259v8.484ZM79.089,66.834v-10.1H71.376v10.1Zm13.672,0v-10.1H85.048v10.1ZM64.505,87.588V79.1H43.259v8.485Zm28.117,0V79.1H71.376v8.485Zm14.512,14.3V91.8H99.421v10.1Z"/></g></svg>