<svg xmlns="http://www.w3.org/2000/svg" viewBox="0 0 150 214.969"><defs><style>.cls-1{fill:#fff;}</style></defs><title>dhlg_logotype_vertical_rev</title><g id="base"><path class="cls-1" d="M140.221,64.919A64.919,64.919,0,1,1,75.3,0,64.918,64.918,0,0,1,140.221,64.919ZM26.229,20.7V10.229H0V20.7ZM45.7,38.362V25.9H36.181V38.362Zm17.222,0V25.9H53.4V38.362Zm34.71,0V25.9H88.113V38.362Zm16.878,0V25.9h-9.522V38.362Zm17.743,0V25.9h-9.521V38.362Zm17.744,0V25.9h-9.521V38.362ZM45.442,82.507V70.042H35.921V82.507Zm34.19-18.525V53.508H53.4V63.982Zm18,18.525V70.042H88.113V82.507Zm16.878,0V70.042h-9.522V82.507Zm-34.881,25.62V97.653H53.4v10.474Zm34.71,0V97.653H88.113v10.474Zm17.914,17.659V113.321h-9.521v12.465Z"/></g><g id="type"><path class="cls-1" d="M28.818,196.064h-.237a10.825,10.825,0,0,1-9.526,4.941,11.111,11.111,0,0,1-9.335-4.423q-3.389-4.423-3.387-12.352,0-7.989,3.4-12.441a11.091,11.091,0,0,1,9.32-4.452,11.11,11.11,0,0,1,9.526,4.733h.355q-.355-3.816-.355-4.793v-12.9h5.385v46.035H29.617Zm-.237-10.621V184.23q0-6.715-2.057-9.571T19.972,171.8q-8.048,0-8.047,12.485,0,12.248,8.106,12.248,4.5,0,6.465-2.618T28.581,185.443Z"/><path class="cls-1" d="M64.882,200.413V179.5q0-7.692-7.041-7.692-9.084,0-9.083,11.775v16.834H43.374V154.378h5.384v13.669l-.236,4.26h.3q3.048-4.971,9.941-4.97,11.508,0,11.509,11.863v21.213Z"/><path class="cls-1" d="M90.74,158.609l-7.929-.621v-3.61H96.154v41.8l10.414.592v3.639H80.562v-3.639l10.178-.592Z"/><path class="cls-1" d="M144.674,167.928v3.343l-5.8.8a10.073,10.073,0,0,1,1.923,6.3,9.692,9.692,0,0,1-3.15,7.589q-3.153,2.824-8.773,2.825a14.045,14.045,0,0,1-2.544-.178q-2.96,1.657-2.959,3.935,0,2.485,4.764,2.485h5.532q5.148,0,7.87,2.278a8.014,8.014,0,0,1,2.722,6.509q0,11.154-16.716,11.154-6.45,0-9.808-2.382a7.714,7.714,0,0,1-3.358-6.671q0-6.273,7.1-7.988a4.721,4.721,0,0,1-2.84-4.556q0-3.314,3.935-5.681a8.543,8.543,0,0,1-4.142-3.624,10.573,10.573,0,0,1-1.509-5.518q0-5.383,3.151-8.3t8.979-2.914a14.954,14.954,0,0,1,4.438.591Zm-12.84,31.952h-5.562q-6.806,0-6.805,5.858,0,5.148,8.018,5.148,11.685,0,11.686-6.6,0-2.6-1.479-3.506T131.834,199.88Zm-2.9-14.792q6.6,0,6.6-6.805,0-7.071-6.657-7.071t-6.656,7.16Q122.219,185.087,128.934,185.088Z"/></g></svg>