<svg xmlns="http://www.w3.org/2000/svg" viewBox="0 0 600 463.689"><defs><style>.cls-1{fill:#fde8ab;}.cls-2{fill:#403c30;}.cls-3{fill:#ffc71f;}</style></defs><title>dhlg_logotype_full</title><g id="base"><circle class="cls-1" cx="258.141" cy="274.021" r="189.668"/></g><g id="type"><path class="cls-2" d="M232.076,171.628h-5.4V134.16H214.612v-4.734h29.5v4.734H232.076Zm40.672,0V151.22q0-7.5-6.87-7.5-8.862,0-8.862,11.489v16.424h-5.254V126.713h5.254v13.336l-.231,4.157h.289q2.971-4.849,9.7-4.85,11.227,0,11.228,11.575v20.7Zm41.509-14.837H291.915q.231,10.826,9.93,10.825a26.518,26.518,0,0,0,10.68-2.194v4.619a25.228,25.228,0,0,1-10.507,2.165q-7.074,0-11.316-4.316t-4.243-11.878q0-7.678,3.911-12.167a13.185,13.185,0,0,1,10.464-4.489,12.8,12.8,0,0,1,9.771,3.868q3.653,3.869,3.652,10.305Zm-22.227-4.272h16.54q0-8.8-7.851-8.8Q292.78,143.715,292.03,152.519Zm65.439,19.109v-42.2h9.872q9.15,0,14.245,5.456t5.095,15.241q0,10.421-5.282,15.963t-15.241,5.542Zm5.4-37.612V167.01h2.771q15.356,0,15.357-16.714,0-16.279-14.231-16.28Zm41.8,10.074-7.765-.606v-3.55h13.018V167.5l10.161.578v3.55H394.735v-3.55l9.93-.578Zm2.655-17.2q3.058,0,3.06,3.291a3.2,3.2,0,0,1-.909,2.5,3.1,3.1,0,0,1-2.151.822q-3.09,0-3.088-3.319Q404.232,126.886,407.32,126.886Zm49.707,13.048V143.2l-5.657.78a9.823,9.823,0,0,1,1.876,6.148,9.451,9.451,0,0,1-3.074,7.4q-3.075,2.757-8.559,2.757a13.811,13.811,0,0,1-2.482-.173q-2.887,1.617-2.887,3.839,0,2.424,4.647,2.425h5.4q5.024,0,7.679,2.222a7.819,7.819,0,0,1,2.655,6.351q0,10.882-16.309,10.882-6.294,0-9.569-2.323a7.527,7.527,0,0,1-3.276-6.51q0-6.12,6.928-7.794a4.605,4.605,0,0,1-2.772-4.445q0-3.232,3.84-5.542a8.34,8.34,0,0,1-4.042-3.536,10.325,10.325,0,0,1-1.472-5.384q0-5.253,3.074-8.1t8.761-2.843a14.561,14.561,0,0,1,4.33.578ZM444.5,171.109h-5.427q-6.64,0-6.639,5.715,0,5.023,7.822,5.023,11.4,0,11.4-6.437,0-2.541-1.443-3.421T444.5,171.109Zm-2.829-14.433q6.435,0,6.437-6.639,0-6.9-6.5-6.9t-6.5,6.985Q435.118,156.676,441.671,156.676Zm33.946-12.586-7.765-.606v-3.55h13.019V167.5l10.16.578v3.55H465.687v-3.55l9.93-.578Zm2.656-17.2q3.058,0,3.059,3.291a3.2,3.2,0,0,1-.909,2.5,3.1,3.1,0,0,1-2.15.822q-3.09,0-3.089-3.319Q475.184,126.886,478.273,126.886ZM524.92,167.3v3.984a30.39,30.39,0,0,1-7.274.924q-10.452,0-10.45-9.93V143.888h-7.707v-2.713l7.707-1.415,2.223-8.284h3.031v8.458h12.643v3.954H512.45v18.388q0,5.628,5.542,5.629A51.081,51.081,0,0,0,524.92,167.3Zm31.868,4.33-1.068-4.387h-.231a13.071,13.071,0,0,1-4.561,3.882,14.429,14.429,0,0,1-6.033,1.083,10.406,10.406,0,0,1-7.375-2.483,9.029,9.029,0,0,1-2.67-6.957q0-9.583,14.721-10.045l5.86-.2v-1.992q0-6.811-7.043-6.812a23.251,23.251,0,0,0-9.468,2.367l-1.819-3.955a25.037,25.037,0,0,1,11.056-2.771q6.552,0,9.482,2.512t2.93,8.053v21.707Zm-1.415-15.5-4.676.2q-5.658.233-8.025,1.776a5.244,5.244,0,0,0-2.367,4.719q0,5.139,5.774,5.138a9.533,9.533,0,0,0,6.769-2.352,8.612,8.612,0,0,0,2.525-6.625Zm26.413-25.286-7.736-.606v-3.522h13.018V167.5l10.161.578v3.55H571.856v-3.55l9.93-.578ZM278.723,253.407h-5.4V233.721H256.439v19.686h-5.4v-42.2h5.4v17.782h16.886V211.205h5.4Zm30.511,0-.779-4.243h-.289q-3.03,4.821-9.641,4.82-11.286,0-11.287-11.575v-20.7h5.254v20.409q0,7.5,6.812,7.5,4.649,0,6.784-2.67t2.136-8.79V221.712h5.253v31.7Zm37.064,0V233a15.465,15.465,0,0,0-.765-5.86,2.624,2.624,0,0,0-2.555-1.645,3.8,3.8,0,0,0-3.651,2.4q-1.14,2.4-1.14,8.024v17.493h-4.648V233q0-7.5-3.608-7.5a3.558,3.558,0,0,0-3.464,2.295q-1.039,2.3-1.039,9.193v16.425h-4.676v-31.7h3.666l.779,4.273h.289q1.932-4.85,5.8-4.85,4.7,0,6.148,5.254h.173q2.193-5.255,6.322-5.254a5.864,5.864,0,0,1,5.369,2.67q1.673,2.67,1.674,8.905v20.7Zm33.109,0-1.068-4.387h-.231a13.071,13.071,0,0,1-4.561,3.882,14.424,14.424,0,0,1-6.033,1.082,10.412,10.412,0,0,1-7.375-2.482,9.029,9.029,0,0,1-2.67-6.957q0-9.583,14.722-10.045l5.859-.2v-1.992q0-6.812-7.043-6.812a23.251,23.251,0,0,0-9.468,2.367l-1.818-3.955a25.033,25.033,0,0,1,11.055-2.771q6.553,0,9.483,2.511t2.93,8.054v21.707Zm-1.414-15.5-4.677.2q-5.656.233-8.024,1.775a5.247,5.247,0,0,0-2.367,4.72q0,5.137,5.773,5.138a9.536,9.536,0,0,0,6.769-2.352,8.609,8.609,0,0,0,2.526-6.625Zm36.659,15.5V233q0-7.5-6.87-7.5-8.862,0-8.862,11.488v16.425h-5.253v-31.7h4.243l.779,4.273h.289q2.971-4.85,9.7-4.85,11.229,0,11.229,11.575v20.7Zm25.489-27.538-7.765-.606v-3.551h13.018v27.567l10.161.578v3.55H430.211v-3.55l9.93-.578Zm2.656-17.2q3.057,0,3.059,3.291a3.2,3.2,0,0,1-.909,2.5,3.1,3.1,0,0,1-2.15.822q-3.092,0-3.089-3.319Q439.708,208.665,442.8,208.665Zm46.647,40.412v3.984a30.387,30.387,0,0,1-7.274.923q-10.452,0-10.45-9.929V225.667h-7.707v-2.713l7.707-1.415,2.223-8.284h3.031v8.457h12.643v3.955H476.974v18.388q0,5.628,5.542,5.628A51.055,51.055,0,0,0,489.444,249.077Zm21.649-23.208-7.765-.606v-3.551h13.019v27.567l10.161.578v3.55H501.163v-3.55l9.93-.578Zm2.656-17.2q3.058,0,3.06,3.291a3.2,3.2,0,0,1-.91,2.5,3.1,3.1,0,0,1-2.15.822q-3.09,0-3.089-3.319Q510.66,208.665,513.749,208.665ZM562.59,238.57H540.248q.231,10.826,9.93,10.825a26.518,26.518,0,0,0,10.68-2.194v4.619a25.228,25.228,0,0,1-10.507,2.164q-7.074,0-11.316-4.315t-4.243-11.878q0-7.678,3.911-12.167a13.185,13.185,0,0,1,10.464-4.489A12.8,12.8,0,0,1,558.938,225q3.653,3.869,3.652,10.305ZM540.363,234.3H556.9q0-8.8-7.851-8.8Q541.113,225.494,540.363,234.3Zm31.926,17.695V247.2a26.215,26.215,0,0,0,10.68,2.482q7.938,0,7.938-4.676a3.665,3.665,0,0,0-1.414-2.858q-1.415-1.212-6.524-3.059-6.727-2.513-8.472-4.6a7.487,7.487,0,0,1-1.746-4.951,7.1,7.1,0,0,1,3.218-6.163q3.219-2.237,8.9-2.237a26.53,26.53,0,0,1,10.652,2.136l-1.732,4.3a25.613,25.613,0,0,0-9.208-2.078q-6.814,0-6.813,3.839a3.3,3.3,0,0,0,1.458,2.814,32.756,32.756,0,0,0,6.711,2.93q6.09,2.225,8.1,4.373a7.435,7.435,0,0,1,2.006,5.269,7.955,7.955,0,0,1-3.377,6.8q-3.376,2.469-9.555,2.468Q575.954,253.984,572.289,251.993ZM324.822,335.186v-42.2h5.4v37.41h18.329v4.792Zm44.367-27.538-7.765-.606v-3.551h13.018v27.567l10.161.578v3.55H359.259v-3.55l9.93-.578Zm2.655-17.2q3.058,0,3.06,3.291a3.2,3.2,0,0,1-.909,2.5,3.1,3.1,0,0,1-2.151.822q-3.09,0-3.088-3.319Q368.756,290.444,371.844,290.444Zm46.647,40.412v3.984a30.425,30.425,0,0,1-7.274.923q-10.45,0-10.449-9.929V307.446h-7.707v-2.713l7.707-1.415,2.223-8.284h3.03v8.457h12.644v3.955H406.021v18.388q0,5.628,5.543,5.628A51.042,51.042,0,0,0,418.491,330.856Zm37.67-10.507H433.819q.231,10.824,9.93,10.825a26.528,26.528,0,0,0,10.68-2.194V333.6a25.206,25.206,0,0,1-10.507,2.165q-7.073,0-11.315-4.315t-4.243-11.878q0-7.678,3.911-12.167a13.182,13.182,0,0,1,10.464-4.489,12.8,12.8,0,0,1,9.771,3.868q3.651,3.868,3.651,10.305Zm-22.226-4.272h16.54q0-8.805-7.852-8.8Q434.684,307.273,433.935,316.077Zm56.635-11.864-1.415,4.792a19,19,0,0,0-6.466-1.3q-4.705,0-7.26,2.67t-2.554,7.721v17.089h-5.254V303.491h4.272l.635,5.8h.231a14.646,14.646,0,0,1,4.7-4.907,12.041,12.041,0,0,1,6.178-1.472A19.94,19.94,0,0,1,490.57,304.213Zm30.742,30.973-1.068-4.388h-.231a13.064,13.064,0,0,1-4.561,3.883,14.431,14.431,0,0,1-6.033,1.082,10.41,10.41,0,0,1-7.375-2.482,9.029,9.029,0,0,1-2.67-6.957q0-9.584,14.721-10.045l5.86-.2v-1.992q0-6.811-7.043-6.812a23.251,23.251,0,0,0-9.468,2.367l-1.819-3.955a25.037,25.037,0,0,1,11.056-2.771q6.552,0,9.482,2.511t2.93,8.054v21.707Zm-1.415-15.5-4.676.2q-5.658.232-8.025,1.775a5.247,5.247,0,0,0-2.367,4.72q0,5.137,5.773,5.138a9.534,9.534,0,0,0,6.769-2.352,8.609,8.609,0,0,0,2.526-6.625Zm41.683-15.068-1.79,4.561a22.114,22.114,0,0,0-7.736-1.645q-10.711,0-10.709,11.921,0,11.719,10.42,11.72a26.092,26.092,0,0,0,9.266-1.79V334a22.884,22.884,0,0,1-9.5,1.76q-7.419,0-11.517-4.2t-4.1-12.051q0-8.112,4.185-12.355t11.778-4.243A27.518,27.518,0,0,1,561.58,304.617Zm7.216-1.126h5.427l7.563,18.879q2.366,5.918,2.569,8.371h.173a60.268,60.268,0,0,1,2.6-8.429l6.9-18.821h5.455l-13.711,35.823a21.171,21.171,0,0,1-4.5,7.548,9.7,9.7,0,0,1-7.1,2.526,23.818,23.818,0,0,1-4.849-.491v-4.185a20.675,20.675,0,0,0,3.925.346,6.954,6.954,0,0,0,4.316-1.183,9.848,9.848,0,0,0,2.756-4.07l1.675-4.33Zm-266.778,91.19H314.2v20.7a33.468,33.468,0,0,1-12.124,2.165,13.873,13.873,0,0,1-11.82-5.758Q286,406.024,286,395.806q0-10.131,4.676-15.89t12.875-5.759a20.129,20.129,0,0,1,9.987,2.482l-2.078,4.677a16.237,16.237,0,0,0-8.083-2.425,9.892,9.892,0,0,0-8.63,4.489q-3.092,4.488-3.089,12.484,0,16.973,11.373,16.973a21.852,21.852,0,0,0,5.831-.837V399.415h-6.841Zm42.692,22.284-.779-4.243h-.289q-3.03,4.821-9.641,4.82-11.286,0-11.286-11.575v-20.7h5.253v20.408q0,7.506,6.812,7.506,4.649,0,6.784-2.671t2.136-8.789V385.27h5.254v31.695Zm24.479-27.538-7.765-.606V385.27h13.018v27.567l10.161.577v3.551H359.259v-3.551l9.93-.577Zm2.655-17.2q3.058,0,3.06,3.291a3.2,3.2,0,0,1-.909,2.5,3.1,3.1,0,0,1-2.151.823q-3.09,0-3.088-3.319Q368.756,372.223,371.844,372.223Zm43.1,40.5h-.231a10.561,10.561,0,0,1-9.295,4.82,10.836,10.836,0,0,1-9.107-4.315Q393,408.912,393,401.175q0-7.794,3.319-12.138a11.676,11.676,0,0,1,18.388.274h.346q-.345-3.723-.346-4.676V372.05h5.254v44.915H415.72Zm-.231-10.363v-1.184q0-6.552-2.006-9.338t-6.394-2.785q-7.853,0-7.851,12.181,0,11.95,7.909,11.951,4.387,0,6.307-2.555T414.71,402.359Zm41.451-.231H433.819q.231,10.824,9.93,10.825a26.528,26.528,0,0,0,10.68-2.194v4.618a25.206,25.206,0,0,1-10.507,2.165q-7.073,0-11.315-4.315t-4.243-11.878q0-7.678,3.911-12.167a13.182,13.182,0,0,1,10.464-4.489,12.8,12.8,0,0,1,9.771,3.868q3.651,3.868,3.651,10.305Zm-22.226-4.272h16.54q0-8.805-7.852-8.8Q434.684,389.052,433.935,397.856Zm35.88,15.1h-.346l-1.068,4.012h-3.84V372.05h5.254V382.9q0,2.338-.231,6.524h.231q3.089-4.734,9.3-4.734a10.839,10.839,0,0,1,9.107,4.315q3.3,4.315,3.305,12.052,0,7.794-3.319,12.138a11.7,11.7,0,0,1-18.388-.245Zm0-11.893q0,6.553,2.006,9.338t6.394,2.786q7.851,0,7.851-12.182,0-11.95-7.909-11.95-4.476,0-6.408,2.713T469.815,401.06Zm43.27,16.482a13.177,13.177,0,0,1-10.262-4.488q-4.026-4.488-4.027-11.994,0-7.591,3.912-11.979a13.42,13.42,0,0,1,10.55-4.388,13.214,13.214,0,0,1,10.3,4.474q4.011,4.474,4.013,11.893,0,7.648-3.955,12.066A13.45,13.45,0,0,1,513.085,417.542Zm.115-4.358q8.947,0,8.949-12.124,0-12.009-9.006-12.008-8.921,0-8.92,12.008Q504.223,413.183,513.2,413.184Zm35.361,4.358a13.177,13.177,0,0,1-10.262-4.488q-4.026-4.488-4.027-11.994,0-7.591,3.912-11.979a13.42,13.42,0,0,1,10.55-4.388,13.214,13.214,0,0,1,10.3,4.474q4.011,4.474,4.013,11.893,0,7.648-3.955,12.066A13.45,13.45,0,0,1,548.561,417.542Zm.116-4.358q8.946,0,8.948-12.124,0-12.009-9.006-12.008-8.921,0-8.92,12.008Q539.7,413.183,548.677,413.184ZM577.485,401l3.9-4.387,11.4-11.345h6.408l-14.26,13.712L600,416.965h-6.148l-12.3-14.548-3.724,2.367v12.181h-5.2V372.05h5.2v20.61L577.369,401Z"/></g><g id="morse"><path class="cls-3" d="M94.09,21.479V0h53.785V21.479Zm78.638,37.987V33.9h19.527V59.466Zm44.377,0V33.9h19.527V59.466ZM0,138.289V112.751H19.509v25.538Zm44.336,0V112.751H63.845v25.538Zm44.337,0V112.751h19.508v25.538Zm44.336,0V112.751h19.508v25.538ZM0,236.818V211.28H19.509v25.538Zm44.336-37.952V177.408H98.072v21.458ZM122.9,236.818V211.28H142.41v25.538Zm44.338,0V211.28h19.508v25.538ZM93.992,297.4V275.936h53.735V297.4Zm78.567,0V275.936h53.735V297.4Zm78.567,37.952V309.809h19.508v25.538Z"/></g></svg>