<svg id="base" xmlns="http://www.w3.org/2000/svg" viewBox="0 0 150 129.837"><defs><style>.cls-1{fill:#fff;}</style></defs><title>dhlg_mark_rev</title><path class="cls-1" d="M140.221,64.919A64.919,64.919,0,1,1,75.3,0,64.918,64.918,0,0,1,140.221,64.919ZM26.229,20.7V10.229H0V20.7ZM45.7,38.362V25.9H36.181V38.362Zm17.222,0V25.9H53.4V38.362Zm34.71,0V25.9H88.113V38.362Zm16.878,0V25.9h-9.522V38.362Zm17.743,0V25.9h-9.521V38.362Zm17.744,0V25.9h-9.521V38.362ZM45.442,82.507V70.042H35.921V82.507Zm34.19-18.525V53.508H53.4V63.982Zm18,18.525V70.042H88.113V82.507Zm16.878,0V70.042h-9.522V82.507Zm-34.881,25.62V97.653H53.4v10.474Zm34.71,0V97.653H88.113v10.474Zm17.914,17.659V113.321h-9.521v12.465Z"/></svg>