<svg xmlns="http://www.w3.org/2000/svg" viewBox="0 0 150 129.837"><defs><style>.cls-1{fill:#fde8ab;}.cls-2{fill:#ffc71f;}</style></defs><title>dhlg_mark</title><g id="base"><circle class="cls-1" cx="75.302" cy="64.919" r="64.919"/></g><g id="morse"><path class="cls-2" d="M0,20.7V10.229H26.229V20.7ZM36.181,38.362V25.9H45.7V38.362Zm17.222,0V25.9h9.522V38.362Zm34.71,0V25.9h9.522V38.362Zm16.878,0V25.9h9.522V38.362Zm17.744,0V25.9h9.521V38.362Zm17.744,0V25.9H150V38.362ZM35.921,82.507V70.042h9.521V82.507ZM53.4,63.982V53.508H79.632V63.982Zm34.71,18.525V70.042h9.522V82.507Zm16.878,0V70.042h9.522V82.507ZM53.4,108.127V97.653H79.632v10.474Zm34.71,0V97.653h26.229v10.474Zm34.622,17.659V113.321h9.521v12.465Z"/></g></svg>